<svg width="18" height="17" viewBox="0 0 18 17" fill="none" xmlns="http://www.w3.org/2000/svg">
<path d="M8.96632 11.6252C7.23978 11.6252 5.83854 10.2239 5.83854 8.49738C5.83854 6.77085 7.23978 5.3696 8.96632 5.3696C10.6929 5.3696 12.0941 6.77085 12.0941 8.49738C12.0941 10.2239 10.6929 11.6252 8.96632 11.6252ZM8.96632 6.62071C7.93206 6.62071 7.08965 7.46313 7.08965 8.49738C7.08965 9.53163 7.93206 10.374 8.96632 10.374C10.0006 10.374 10.843 9.53163 10.843 8.49738C10.843 7.46313 10.0006 6.62071 8.96632 6.62071Z" fill="#898989"/>
<path d="M11.6437 16.9966C11.4685 16.9966 11.2934 16.9716 11.1182 16.9299C10.6011 16.7881 10.1674 16.4628 9.89212 16.004L9.79204 15.8372C9.29993 14.9865 8.62433 14.9865 8.13223 15.8372L8.04048 15.9957C7.76523 16.4628 7.33152 16.7964 6.81439 16.9299C6.28892 17.0717 5.74677 16.9966 5.28803 16.7213L3.85342 15.8956C3.34464 15.6037 2.97765 15.1283 2.81917 14.5528C2.66904 13.9772 2.74411 13.3851 3.03603 12.8763C3.27791 12.4509 3.34464 12.0672 3.20285 11.8253C3.06105 11.5835 2.7024 11.4417 2.2103 11.4417C0.992549 11.4417 0 10.4491 0 9.23136L0 7.76339C0 6.54564 0.992549 5.55309 2.2103 5.55309C2.7024 5.55309 3.06105 5.4113 3.20285 5.16942C3.34464 4.92754 3.28625 4.54386 3.03603 4.11848C2.74411 3.6097 2.66904 3.00916 2.81917 2.44199C2.96931 1.86648 3.3363 1.39106 3.85342 1.09913L5.29637 0.273398C6.23888 -0.285432 7.48165 0.0398574 8.04882 0.999043L8.14891 1.16586C8.64101 2.01661 9.31661 2.01661 9.80872 1.16586L9.90047 1.00738C10.4676 0.0398574 11.7104 -0.285432 12.6613 0.281739L14.0959 1.10747C14.6046 1.3994 14.9716 1.87482 15.1301 2.45033C15.2802 3.02584 15.2052 3.61804 14.9133 4.12682C14.6714 4.5522 14.6046 4.93588 14.7464 5.17776C14.8882 5.41964 15.2469 5.56143 15.739 5.56143C16.9567 5.56143 17.9493 6.55398 17.9493 7.77173V9.2397C17.9493 10.4574 16.9567 11.45 15.739 11.45C15.2469 11.45 14.8882 11.5918 14.7464 11.8337C14.6046 12.0756 14.663 12.4592 14.9133 12.8846C15.2052 13.3934 15.2886 13.9939 15.1301 14.5611C14.98 15.1366 14.613 15.612 14.0959 15.904L12.6529 16.7297C12.336 16.9048 11.994 16.9966 11.6437 16.9966ZM8.9663 13.9105C9.70863 13.9105 10.4009 14.3776 10.8763 15.2033L10.9681 15.3618C11.0682 15.537 11.235 15.6621 11.4352 15.7121C11.6353 15.7622 11.8355 15.7371 12.0023 15.6371L13.4453 14.803C13.6621 14.6779 13.829 14.4693 13.8957 14.2191C13.9624 13.9689 13.929 13.7103 13.8039 13.4935C13.3285 12.6761 13.2701 11.8337 13.6371 11.1914C14.0041 10.5492 14.7631 10.1822 15.714 10.1822C16.2478 10.1822 16.6732 9.75683 16.6732 9.22302V7.75505C16.6732 7.22958 16.2478 6.79586 15.714 6.79586C14.7631 6.79586 14.0041 6.42887 13.6371 5.78663C13.2701 5.14439 13.3285 4.30198 13.8039 3.48459C13.929 3.26773 13.9624 3.00916 13.8957 2.75894C13.829 2.50872 13.6705 2.30854 13.4536 2.17509L12.0107 1.34935C11.652 1.1325 11.1766 1.25761 10.9597 1.6246L10.868 1.78307C10.3926 2.60881 9.70029 3.07589 8.95796 3.07589C8.21563 3.07589 7.52335 2.60881 7.04793 1.78307L6.95618 1.61626C6.74766 1.26595 6.28058 1.14084 5.92193 1.34935L4.47898 2.18343C4.26212 2.30854 4.09531 2.51706 4.02858 2.76728C3.96185 3.0175 3.99522 3.27607 4.12033 3.49293C4.59575 4.31032 4.65414 5.15274 4.28714 5.79497C3.92015 6.43721 3.16114 6.8042 2.2103 6.8042C1.67649 6.8042 1.25111 7.22958 1.25111 7.76339L1.25111 9.23136C1.25111 9.75683 1.67649 10.1905 2.2103 10.1905C3.16114 10.1905 3.92015 10.5575 4.28714 11.1998C4.65414 11.842 4.59575 12.6844 4.12033 13.5018C3.99522 13.7187 3.96185 13.9772 4.02858 14.2275C4.09531 14.4777 4.25378 14.6779 4.47064 14.8113L5.91359 15.6371C6.08874 15.7455 6.29726 15.7705 6.4891 15.7205C6.68928 15.6704 6.85609 15.537 6.96452 15.3618L7.05627 15.2033C7.53169 14.3859 8.22398 13.9105 8.9663 13.9105Z" fill="#898989"/>
</svg>
