<svg width="17" height="17" viewBox="0 0 17 17" fill="none" xmlns="http://www.w3.org/2000/svg">
<path d="M12.75 0L4.25 0C1.904 0 0 1.8955 0 4.233L0 9.316L0 10.166C0 12.5035 1.904 14.399 4.25 14.399H5.525C5.7545 14.399 6.0605 14.552 6.205 14.739L7.48 16.4305C8.041 17.1785 8.959 17.1785 9.52 16.4305L10.795 14.739C10.9565 14.5265 11.2115 14.399 11.475 14.399H12.75C15.096 14.399 17 12.5035 17 10.166V4.233C17 1.8955 15.096 0 12.75 0ZM9.35 9.9875L4.25 9.9875C3.9015 9.9875 3.6125 9.6985 3.6125 9.35C3.6125 9.0015 3.9015 8.7125 4.25 8.7125L9.35 8.7125C9.6985 8.7125 9.9875 9.0015 9.9875 9.35C9.9875 9.6985 9.6985 9.9875 9.35 9.9875ZM12.75 5.7375L4.25 5.7375C3.9015 5.7375 3.6125 5.4485 3.6125 5.1C3.6125 4.7515 3.9015 4.4625 4.25 4.4625L12.75 4.4625C13.0985 4.4625 13.3875 4.7515 13.3875 5.1C13.3875 5.4485 13.0985 5.7375 12.75 5.7375Z" fill="#898989"/>
</svg>
