<svg width="17" height="17" viewBox="0 0 17 17" fill="none" xmlns="http://www.w3.org/2000/svg">
<path d="M5.97177 0C3.74932 0 1.94251 1.8068 1.94251 4.02926C1.94251 6.2093 3.64753 7.97369 5.86998 8.05004C5.93784 8.04155 6.0057 8.04155 6.0566 8.05004C6.07356 8.05004 6.08205 8.05004 6.09901 8.05004C6.10749 8.05004 6.10749 8.05004 6.11598 8.05004C8.28754 7.97369 9.99255 6.2093 10.001 4.02926C10.001 1.8068 8.19423 0 5.97177 0Z" fill="white"/>
<path d="M10.281 10.3065C7.91431 8.72868 4.05471 8.72868 1.67108 10.3065C0.593786 11.0275 0 12.003 0 13.0463C0 14.0897 0.593786 15.0567 1.6626 15.7693C2.85017 16.5666 4.41098 16.9653 5.97179 16.9653C7.53259 16.9653 9.0934 16.5666 10.281 15.7693C11.3498 15.0483 11.9436 14.0812 11.9436 13.0294C11.9351 11.986 11.3498 11.019 10.281 10.3065Z" fill="white"/>
<path d="M15.2942 4.52975C15.4299 6.17539 14.2593 7.61744 12.6391 7.81254C12.6307 7.81254 12.6307 7.81254 12.6222 7.81254H12.5967C12.5458 7.81254 12.4949 7.81254 12.4525 7.8295C11.6297 7.87191 10.8748 7.60895 10.3064 7.12544C11.1801 6.34504 11.6806 5.17443 11.5788 3.90203C11.5194 3.21494 11.2819 2.58722 10.9257 2.05282C11.248 1.89165 11.6212 1.78985 12.003 1.75592C13.6656 1.61172 15.15 2.85019 15.2942 4.52975Z" fill="white"/>
<path d="M16.9908 12.3762C16.9229 13.199 16.397 13.9116 15.5148 14.3951C14.6665 14.8616 13.5977 15.0822 12.5374 15.0567C13.1481 14.5053 13.5044 13.8182 13.5722 13.0887C13.6571 12.0369 13.1566 11.0275 12.1556 10.2216C11.5873 9.77202 10.9257 9.41575 10.2046 9.15279C12.0793 8.6099 14.4375 8.97465 15.888 10.1453C16.6684 10.773 17.0671 11.5619 16.9908 12.3762Z" fill="white"/>
</svg>
