<svg width="13" height="13" viewBox="0 0 13 13" fill="none" xmlns="http://www.w3.org/2000/svg">
<path d="M7.62296 0.931022L8.76684 3.21877C8.92282 3.53724 9.33877 3.8427 9.68974 3.90119L11.763 4.24566C13.0889 4.46663 13.4008 5.42853 12.4454 6.37742L10.8336 7.98924C10.5606 8.26221 10.4112 8.78866 10.4956 9.16561L10.9571 11.1609C11.3211 12.7402 10.4826 13.3512 9.0853 12.5257L7.14202 11.3754C6.79106 11.1674 6.21262 11.1674 5.85516 11.3754L3.91187 12.5257C2.52103 13.3512 1.67612 12.7337 2.04008 11.1609L2.50153 9.16561C2.58602 8.78866 2.43654 8.26221 2.16357 7.98924L0.551745 6.37742C-0.39715 5.42853 -0.0916836 4.46663 1.23417 4.24566L3.30744 3.90119C3.6519 3.8427 4.06786 3.53724 4.22384 3.21877L5.36771 0.931022C5.99164 -0.310341 7.00553 -0.310341 7.62296 0.931022Z" fill="#FFD928"/>
</svg>
