<svg width="17" height="17" viewBox="0 0 17 17" fill="none" xmlns="http://www.w3.org/2000/svg">
<path d="M15.8593 4.32893C15.153 3.5479 13.9732 3.15738 12.2615 3.15738H12.0621V3.12415C12.0621 1.72825 12.0621 0 8.93797 0L7.67502 0C4.55087 0 4.55087 1.73656 4.55087 3.12415V3.16569H4.35146C2.63152 3.16569 1.45996 3.55621 0.753706 4.33724C-0.0688742 5.25122 -0.0439477 6.48094 0.0391413 7.32014L0.0474502 7.3783L0.108061 8.01471C0.122283 8.16404 0.202799 8.29903 0.328427 8.38101C0.529887 8.51248 0.838718 8.71064 1.0279 8.81574C1.14422 8.89052 1.26886 8.95699 1.39349 9.02346C2.81431 9.8045 4.37639 10.328 5.96338 10.5855C6.03816 11.3666 6.37883 12.2805 8.19848 12.2805C10.0181 12.2805 10.3754 11.3749 10.4336 10.5689C12.1286 10.2947 13.7654 9.70479 15.2444 8.84066C15.2943 8.81574 15.3275 8.79081 15.3691 8.76588C15.6883 8.58543 16.0192 8.3644 16.3229 8.14636C16.4358 8.06533 16.5078 7.93957 16.5231 7.80146L16.5323 7.71896L16.5738 7.32845C16.5822 7.27859 16.5822 7.23705 16.5905 7.17889C16.6569 6.33969 16.6403 5.19306 15.8593 4.32893ZM9.21216 10.0205C9.21216 10.9013 9.21216 11.0342 8.19017 11.0342C7.16817 11.0342 7.16817 10.8763 7.16817 10.0288V8.98192H9.21216L9.21216 10.0205ZM5.73904 3.15738V3.12415C5.73904 1.71163 5.73904 1.18817 7.67502 1.18817L8.93797 1.18817C10.8739 1.18817 10.8739 1.71994 10.8739 3.12415V3.16569L5.73904 3.16569V3.15738Z" fill="#898989"/>
<path d="M15.545 10.0047C15.898 9.83784 16.304 10.1176 16.2687 10.5064L15.984 13.6432C15.8095 15.305 15.1281 17 11.4722 17H5.14084C1.48493 17 0.8036 15.305 0.629113 13.6515L0.359195 10.6824C0.324256 10.2981 0.721409 10.0189 1.07341 10.1771C2.0298 10.6069 3.63708 11.2982 4.67002 11.5764C4.83355 11.6204 4.9663 11.7381 5.04049 11.8904C5.55319 12.9426 6.63918 13.502 8.19852 13.502C9.74249 13.502 10.8418 12.921 11.3564 11.8656C11.4307 11.7133 11.5634 11.5957 11.727 11.5514C12.8255 11.2538 14.5418 10.4788 15.545 10.0047Z" fill="#898989"/>
</svg>
