<svg width="16" height="16" viewBox="0 0 16 16" fill="none" xmlns="http://www.w3.org/2000/svg">
<g clip-path="url(#clip0_1_1089)">
<path d="M11 3.99981V11.6665C11 13.1398 9.80666 14.3331 8.33333 14.3331C6.85999 14.3331 5.66666 13.1398 5.66666 11.6665L5.66666 3.33315C5.66666 2.41315 6.41333 1.66648 7.33333 1.66648C8.25333 1.66648 8.99999 2.41315 8.99999 3.33315V10.3331C8.99999 10.6998 8.69999 10.9998 8.33333 10.9998C7.96666 10.9998 7.66666 10.6998 7.66666 10.3331L7.66666 3.99981H6.66666L6.66666 10.3331C6.66666 11.2531 7.41333 11.9998 8.33333 11.9998C9.25333 11.9998 9.99999 11.2531 9.99999 10.3331L9.99999 3.33315C9.99999 1.85981 8.80666 0.666482 7.33333 0.666482C5.86 0.666482 4.66666 1.85981 4.66666 3.33315L4.66666 11.6665C4.66666 13.6931 6.30666 15.3331 8.33333 15.3331C10.36 15.3331 12 13.6931 12 11.6665L12 3.99981H11Z" fill="white"/>
</g>
<defs>
<clipPath id="clip0_1_1089">
<rect width="15.528" height="15.528" fill="white" transform="scale(1.0304)"/>
</clipPath>
</defs>
</svg>
