<svg width="17" height="17" viewBox="0 0 17 17" fill="none" xmlns="http://www.w3.org/2000/svg">
<path d="M13.226 0L3.7485 0C1.683 0 0 1.683 0 3.7485L0 9.27349L0 9.44349C0 11.5175 1.683 13.192 3.7485 13.192H7.01249C7.47999 13.192 7.86249 13.5745 7.86249 14.042V14.8665C7.86249 15.334 7.47999 15.7165 7.01249 15.7165H4.9555C4.607 15.7165 4.318 16.0055 4.318 16.354C4.318 16.7025 4.5985 17 4.9555 17H12.053C12.4015 17 12.6905 16.711 12.6905 16.3625C12.6905 16.014 12.4015 15.725 12.053 15.725H9.99599C9.52849 15.725 9.14599 15.3425 9.14599 14.875V14.0505C9.14599 13.583 9.52849 13.2005 9.99599 13.2005H13.2345C15.3085 13.2005 16.983 11.5175 16.983 9.45199V9.28199V3.757C16.9745 1.683 15.2915 0 13.226 0Z" fill="#898989"/>
</svg>
