<svg width="15" height="17" viewBox="0 0 15 17" fill="none" xmlns="http://www.w3.org/2000/svg">
<path d="M11.2651 1.89253V0.614458C11.2651 0.278554 10.9865 0 10.6506 0C10.3147 0 10.0361 0.278554 10.0361 0.614458V1.84337L4.71084 1.84337V0.614458C4.71084 0.278554 4.43229 0 4.09638 0C3.76048 0 3.48192 0.278554 3.48192 0.614458V1.89253C1.26988 2.09735 0.196623 3.41639 0.0327672 5.37446C0.0163817 5.61205 0.213008 5.80868 0.442406 5.80868L14.3046 5.80868C14.5422 5.80868 14.7388 5.60386 14.7142 5.37446C14.5504 3.41639 13.4771 2.09735 11.2651 1.89253Z" fill="#898989"/>
<path d="M13.9277 7.03759L0.819277 7.03759C0.368675 7.03759 0 7.40627 0 7.85687L0 12.9036C0 15.3614 1.22892 17 4.09639 17H10.6506C13.5181 17 14.747 15.3614 14.747 12.9036V7.85687C14.747 7.40627 14.3783 7.03759 13.9277 7.03759ZM5.08771 13.8949C5.04675 13.9277 5.00578 13.9687 4.96482 13.9933C4.91566 14.026 4.86651 14.0506 4.81735 14.067C4.76819 14.0916 4.71904 14.108 4.66988 14.1161C4.61253 14.1243 4.56337 14.1325 4.50602 14.1325C4.39952 14.1325 4.29301 14.108 4.1947 14.067C4.08819 14.026 4.00627 13.9687 3.92434 13.8949C3.77687 13.7393 3.68675 13.5263 3.68675 13.3133C3.68675 13.1002 3.77687 12.8872 3.92434 12.7316C4.00627 12.6578 4.08819 12.6005 4.1947 12.5595C4.34217 12.494 4.50602 12.4776 4.66988 12.5104C4.71904 12.5186 4.76819 12.5349 4.81735 12.5595C4.86651 12.5759 4.91566 12.6005 4.96482 12.6333C5.00578 12.666 5.04675 12.6988 5.08771 12.7316C5.23518 12.8872 5.3253 13.1002 5.3253 13.3133C5.3253 13.5263 5.23518 13.7393 5.08771 13.8949ZM5.08771 11.0275C4.93205 11.1749 4.71904 11.2651 4.50602 11.2651C4.29301 11.2651 4.08 11.1749 3.92434 11.0275C3.77687 10.8718 3.68675 10.6588 3.68675 10.4458C3.68675 10.2328 3.77687 10.0198 3.92434 9.8641C4.15374 9.6347 4.51422 9.56097 4.81735 9.69205C4.92386 9.73301 5.01398 9.79036 5.08771 9.8641C5.23518 10.0198 5.3253 10.2328 5.3253 10.4458C5.3253 10.6588 5.23518 10.8718 5.08771 11.0275ZM7.95518 13.8949C7.79952 14.0424 7.58651 14.1325 7.3735 14.1325C7.16048 14.1325 6.94747 14.0424 6.79181 13.8949C6.64434 13.7393 6.55422 13.5263 6.55422 13.3133C6.55422 13.1002 6.64434 12.8872 6.79181 12.7316C7.09494 12.4284 7.65205 12.4284 7.95518 12.7316C8.10265 12.8872 8.19277 13.1002 8.19277 13.3133C8.19277 13.5263 8.10265 13.7393 7.95518 13.8949ZM7.95518 11.0275C7.91422 11.0602 7.87325 11.093 7.83229 11.1258C7.78313 11.1586 7.73398 11.1831 7.68482 11.1995C7.63566 11.2241 7.58651 11.2405 7.53735 11.2487C7.48 11.2569 7.43084 11.2651 7.3735 11.2651C7.16048 11.2651 6.94747 11.1749 6.79181 11.0275C6.64434 10.8718 6.55422 10.6588 6.55422 10.4458C6.55422 10.2328 6.64434 10.0198 6.79181 9.8641C6.86554 9.79036 6.95566 9.73301 7.06217 9.69205C7.3653 9.56097 7.72578 9.6347 7.95518 9.8641C8.10265 10.0198 8.19277 10.2328 8.19277 10.4458C8.19277 10.6588 8.10265 10.8718 7.95518 11.0275ZM10.8227 13.8949C10.667 14.0424 10.454 14.1325 10.241 14.1325C10.028 14.1325 9.81494 14.0424 9.65928 13.8949C9.51181 13.7393 9.42169 13.5263 9.42169 13.3133C9.42169 13.1002 9.51181 12.8872 9.65928 12.7316C9.96241 12.4284 10.5195 12.4284 10.8227 12.7316C10.9701 12.8872 11.0602 13.1002 11.0602 13.3133C11.0602 13.5263 10.9701 13.7393 10.8227 13.8949ZM10.8227 11.0275C10.7817 11.0602 10.7407 11.093 10.6998 11.1258C10.6506 11.1586 10.6014 11.1831 10.5523 11.1995C10.5031 11.2241 10.454 11.2405 10.4048 11.2487C10.3475 11.2569 10.2901 11.2651 10.241 11.2651C10.028 11.2651 9.81494 11.1749 9.65928 11.0275C9.51181 10.8718 9.42169 10.6588 9.42169 10.4458C9.42169 10.2328 9.51181 10.0198 9.65928 9.8641C9.74121 9.79036 9.82313 9.73301 9.92964 9.69205C10.0771 9.62651 10.241 9.61012 10.4048 9.64289C10.454 9.65109 10.5031 9.66747 10.5523 9.69205C10.6014 9.70844 10.6506 9.73301 10.6998 9.76578C10.7407 9.79856 10.7817 9.83133 10.8227 9.8641C10.9701 10.0198 11.0602 10.2328 11.0602 10.4458C11.0602 10.6588 10.9701 10.8718 10.8227 11.0275Z" fill="#898989"/>
</svg>
