<svg width="16" height="16" viewBox="0 0 16 16" fill="none" xmlns="http://www.w3.org/2000/svg">
<g clip-path="url(#clip0_1_943)">
<path d="M8 1.3332C5.42001 1.3332 3.33334 3.41987 3.33334 5.99987C3.33334 9.49986 8 14.6665 8 14.6665C8 14.6665 12.6667 9.49986 12.6667 5.99987C12.6667 3.41987 10.58 1.3332 8 1.3332ZM4.66667 5.99987C4.66667 4.15987 6.16 2.66653 8 2.66653C9.84 2.66653 11.3333 4.15987 11.3333 5.99987C11.3333 7.91986 9.41334 10.7932 8 12.5865C6.61334 10.8065 4.66667 7.89986 4.66667 5.99987Z" fill="#898989"/>
<path d="M7.99997 7.66661C8.92044 7.66661 9.66664 6.92042 9.66664 5.99995C9.66664 5.07947 8.92044 4.33328 7.99997 4.33328C7.07949 4.33328 6.3333 5.07947 6.3333 5.99995C6.3333 6.92042 7.07949 7.66661 7.99997 7.66661Z" fill="#898989"/>
</g>
<defs>
<clipPath id="clip0_1_943">
<rect width="15.528" height="15.528" fill="white" transform="scale(1.0304)"/>
</clipPath>
</defs>
</svg>
