<svg width="15" height="18" viewBox="0 0 15 18" fill="none" xmlns="http://www.w3.org/2000/svg">
<path d="M7.31759 16.1026C5.37862 16.1026 3.43964 15.7947 1.60053 15.1789C0.901503 14.9376 0.36891 14.4466 0.1359 13.8058C-0.105431 13.165 -0.0222137 12.4577 0.360588 11.8252L1.31759 10.2358C1.51731 9.90291 1.70039 9.23717 1.70039 8.84605L1.70039 6.44105C1.70039 3.34535 4.22189 0.823854 7.31759 0.823854C10.4133 0.823854 12.9348 3.34535 12.9348 6.44105V8.84605C12.9348 9.22885 13.1179 9.90291 13.3176 10.2441L14.2663 11.8252C14.6241 12.4244 14.6907 13.1484 14.4494 13.8058C14.208 14.4632 13.6838 14.9625 13.0263 15.1789C11.1955 15.7947 9.25657 16.1026 7.31759 16.1026ZM7.31759 2.07212C4.9126 2.07212 2.94866 4.02774 2.94866 6.44105L2.94866 8.84605C2.94866 9.45354 2.69901 10.3523 2.3911 10.8766L1.4341 12.466C1.25102 12.7739 1.20109 13.0985 1.30927 13.3731C1.40913 13.656 1.65879 13.8724 1.99998 13.9889C5.47848 15.154 9.16503 15.154 12.6435 13.9889C12.9431 13.889 13.1761 13.6644 13.2843 13.3648C13.3925 13.0652 13.3675 12.7406 13.2011 12.466L12.2441 10.8766C11.9279 10.3356 11.6865 9.44521 11.6865 8.83772V6.44105C11.6865 4.02774 9.73091 2.07212 7.31759 2.07212Z" fill="#898989"/>
<path d="M8.86549 2.29681C8.80724 2.29681 8.74898 2.28849 8.69073 2.27184C8.4494 2.20527 8.21639 2.15534 7.9917 2.12205C7.28435 2.03051 6.60197 2.08044 5.96119 2.27184C5.72818 2.34674 5.47853 2.27184 5.32041 2.09709C5.1623 1.92233 5.11237 1.67268 5.20391 1.44799C5.5451 0.574203 6.37728 0 7.32596 0C8.27464 0 9.10682 0.565881 9.44801 1.44799C9.53123 1.67268 9.48962 1.92233 9.33151 2.09709C9.20668 2.23024 9.03192 2.29681 8.86549 2.29681Z" fill="#898989"/>
<path d="M7.31762 18C6.49377 18 5.69488 17.6671 5.11235 17.0846C4.52983 16.5021 4.19696 15.7032 4.19696 14.8793H5.44522C5.44522 15.3703 5.64495 15.853 5.99446 16.2025C6.34397 16.552 6.82664 16.7517 7.31762 16.7517C8.34952 16.7517 9.19002 15.9112 9.19002 14.8793H10.4383C10.4383 16.6019 9.04023 18 7.31762 18Z" fill="#898989"/>
</svg>
