<svg width="17" height="17" viewBox="0 0 17 17" fill="none" xmlns="http://www.w3.org/2000/svg">
<path d="M15.1341 10.3658C16.1646 10.3658 17 9.53046 17 8.49998C17 7.4695 16.1646 6.63413 15.1341 6.63413C14.1037 6.63413 13.2683 7.4695 13.2683 8.49998C13.2683 9.53046 14.1037 10.3658 15.1341 10.3658Z" fill="#898989"/>
<path d="M15.1341 3.73171C16.1646 3.73171 17 2.89634 17 1.86585C17 0.835371 16.1646 0 15.1341 0C14.1037 0 13.2683 0.835371 13.2683 1.86585C13.2683 2.89634 14.1037 3.73171 15.1341 3.73171Z" fill="#898989"/>
<path d="M15.1341 17C16.1646 17 17 16.1646 17 15.1341C17 14.1037 16.1646 13.2683 15.1341 13.2683C14.1037 13.2683 13.2683 14.1037 13.2683 15.1341C13.2683 16.1646 14.1037 17 15.1341 17Z" fill="#898989"/>
<path d="M1.86585 10.3658C2.89634 10.3658 3.73171 9.53046 3.73171 8.49998C3.73171 7.4695 2.89634 6.63413 1.86585 6.63413C0.835371 6.63413 0 7.4695 0 8.49998C0 9.53046 0.835371 10.3658 1.86585 10.3658Z" fill="#898989"/>
<path d="M14.3049 9.12196C14.6449 9.12196 14.9268 8.84001 14.9268 8.50001C14.9268 8.16001 14.6449 7.87806 14.3049 7.87806L8.29266 7.87806L8.29266 4.35367C8.29266 3.04343 8.84827 2.48782 10.1585 2.48782L14.3049 2.48782C14.6449 2.48782 14.9268 2.20587 14.9268 1.86587C14.9268 1.52587 14.6449 1.24391 14.3049 1.24391L10.1585 1.24391C8.15169 1.24391 7.04876 2.34684 7.04876 4.35367L7.04876 7.87806L2.6951 7.87806C2.3551 7.87806 2.07315 8.16001 2.07315 8.50001C2.07315 8.84001 2.3551 9.12196 2.6951 9.12196L7.04876 9.12196L7.04876 12.6464C7.04876 14.6532 8.15169 15.7561 10.1585 15.7561H14.3049C14.6449 15.7561 14.9268 15.4742 14.9268 15.1342C14.9268 14.7942 14.6449 14.5122 14.3049 14.5122H10.1585C8.84827 14.5122 8.29266 13.9566 8.29266 12.6464V9.12196H14.3049Z" fill="#898989"/>
</svg>
