<svg width="17" height="17" viewBox="0 0 17 17" fill="none" xmlns="http://www.w3.org/2000/svg">
<path d="M4.454 0L2.839 0C0.977499 0 0 0.977499 0 2.8305L0 4.4455C0 6.29849 0.977499 7.27599 2.8305 7.27599H4.4455C6.29849 7.27599 7.27599 6.29849 7.27599 4.4455V2.8305C7.28449 0.977499 6.30699 0 4.454 0Z" fill="#898989"/>
<path d="M14.1695 0L12.5545 0C10.7015 0 9.72401 0.977499 9.72401 2.8305V4.4455C9.72401 6.29849 10.7015 7.27599 12.5545 7.27599H14.1695C16.0225 7.27599 17 6.29849 17 4.4455V2.8305C17 0.977499 16.0225 0 14.1695 0Z" fill="#898989"/>
<path d="M14.1695 9.71549H12.5545C10.7015 9.71549 9.72401 10.693 9.72401 12.546V14.161C9.72401 16.014 10.7015 16.9915 12.5545 16.9915H14.1695C16.0225 16.9915 17 16.014 17 14.161V12.546C17 10.693 16.0225 9.71549 14.1695 9.71549Z" fill="#898989"/>
<path d="M4.454 9.71549H2.839C0.977499 9.71549 0 10.693 0 12.546L0 14.161C0 16.0225 0.977499 17 2.8305 17H4.4455C6.29849 17 7.27599 16.0225 7.27599 14.1695V12.5545C7.28449 10.693 6.30699 9.71549 4.454 9.71549Z" fill="#898989"/>
</svg>
