<svg width="16" height="17" viewBox="0 0 16 17" fill="none" xmlns="http://www.w3.org/2000/svg">
<path d="M11.2 0.1768C10.8547 -0.168463 10.2568 0.0673264 10.2568 0.547326V3.48627C10.2568 4.71575 11.301 5.73469 12.5726 5.73469C13.3726 5.74312 14.4842 5.74311 15.4358 5.74311C15.9158 5.74311 16.1684 5.1789 15.8316 4.84206C14.6189 3.62101 12.4463 1.42312 11.2 0.1768Z" fill="#898989"/>
<path d="M15.1579 6.89684H12.7242C10.7284 6.89684 9.10316 5.27158 9.10316 3.27579V0.842105C9.10316 0.378947 8.72421 0 8.26105 0L4.69053 0C2.09684 0 0 1.68421 0 4.69053L0 12.1516C0 15.1579 2.09684 16.8421 4.69053 16.8421H11.3095C13.9032 16.8421 16 15.1579 16 12.1516V7.73895C16 7.27579 15.6211 6.89684 15.1579 6.89684ZM7.57895 13.2632L4.21053 13.2632C3.86526 13.2632 3.57895 12.9768 3.57895 12.6316C3.57895 12.2863 3.86526 12 4.21053 12L7.57895 12C7.92421 12 8.21053 12.2863 8.21053 12.6316C8.21053 12.9768 7.92421 13.2632 7.57895 13.2632ZM9.26316 9.89474L4.21053 9.89474C3.86526 9.89474 3.57895 9.60842 3.57895 9.26316C3.57895 8.91789 3.86526 8.63158 4.21053 8.63158L9.26316 8.63158C9.60842 8.63158 9.89474 8.91789 9.89474 9.26316C9.89474 9.60842 9.60842 9.89474 9.26316 9.89474Z" fill="#898989"/>
</svg>
