<svg width="17" height="17" viewBox="0 0 17 17" fill="none" xmlns="http://www.w3.org/2000/svg">
<path d="M12.0615 0L4.93849 0C1.8445 0 0 1.8445 0 4.9385L0 12.053C0 15.1555 1.8445 17 4.93849 17H12.053C15.147 17 16.9915 15.1555 16.9915 12.0615V4.9385C17 1.8445 15.1555 0 12.0615 0ZM6.72349 12.0615C6.72349 12.6055 6.28149 13.0475 5.72899 13.0475C5.18499 13.0475 4.743 12.6055 4.743 12.0615L4.743 9.29049C4.743 8.74649 5.18499 8.30449 5.72899 8.30449C6.28149 8.30449 6.72349 8.74649 6.72349 9.29049L6.72349 12.0615ZM12.257 12.0615C12.257 12.6055 11.815 13.0475 11.271 13.0475C10.7185 13.0475 10.2765 12.6055 10.2765 12.0615L10.2765 4.9385C10.2765 4.3945 10.7185 3.9525 11.271 3.9525C11.815 3.9525 12.257 4.3945 12.257 4.9385L12.257 12.0615Z" fill="#898989"/>
</svg>
