<svg width="18" height="18" viewBox="0 0 18 18" fill="none" xmlns="http://www.w3.org/2000/svg">
<path d="M8.5814 17.1628C3.85116 17.1628 0 13.3116 0 8.5814C0 3.85116 3.85116 0 8.5814 0C13.3116 0 17.1628 3.85116 17.1628 8.5814C17.1628 13.3116 13.3116 17.1628 8.5814 17.1628ZM8.5814 1.25581C4.53768 1.25581 1.25581 4.54605 1.25581 8.5814C1.25581 12.6167 4.53768 15.907 8.5814 15.907C12.6251 15.907 15.907 12.6167 15.907 8.5814C15.907 4.54605 12.6251 1.25581 8.5814 1.25581Z" fill="#898989"/>
<path d="M17.3721 18C17.213 18 17.054 17.9414 16.9284 17.8158L15.254 16.1414C15.0112 15.8986 15.0112 15.4967 15.254 15.254C15.4967 15.0112 15.8986 15.0112 16.1414 15.254L17.8158 16.9284C18.0586 17.1712 18.0586 17.573 17.8158 17.8158C17.6902 17.9414 17.5312 18 17.3721 18Z" fill="#898989"/>
</svg>
